<?xml version="1.0" encoding="UTF-8" standalone="no"?><!-- Generator: Gravit.io --><svg xmlns="http://www.w3.org/2000/svg" xmlns:xlink="http://www.w3.org/1999/xlink" style="isolation:isolate" viewBox="0 0 128 128" width="128pt" height="128pt"><defs><clipPath id="_clipPath_FgqeH6FXZGUH1K0ZtQv3b1bG2Li3yean"><rect width="128" height="128"/></clipPath></defs><g clip-path="url(#_clipPath_FgqeH6FXZGUH1K0ZtQv3b1bG2Li3yean)"><rect x="0" y="0" width="128" height="128" transform="matrix(1,0,0,1,0,0)" fill="rgb(0,0,0)"/><path d=" M 24.89 48.212 L 24.89 53.292 L 23.39 53.292 L 23.39 40.052 L 29.73 40.052 L 29.73 40.052 Q 31.75 40.052 32.97 41.172 L 32.97 41.172 L 32.97 41.172 Q 34.19 42.272 34.19 44.192 L 34.19 44.192 L 34.19 44.192 Q 34.19 46.672 32.13 47.572 L 32.13 47.572 L 32.13 47.572 Q 31.55 47.832 30.99 47.952 L 30.99 47.952 L 34.47 53.292 L 32.69 53.292 L 29.49 48.212 L 24.89 48.212 L 24.89 48.212 Z  M 24.89 41.472 L 24.89 46.792 L 29.47 46.792 L 29.47 46.792 Q 31.59 46.792 32.39 45.472 L 32.39 45.472 L 32.39 45.472 Q 32.69 44.972 32.69 44.192 L 32.69 44.192 L 32.69 44.192 Q 32.69 42.932 31.83 42.202 L 31.83 42.202 L 31.83 42.202 Q 30.97 41.472 29.55 41.472 L 29.55 41.472 L 24.89 41.472 L 24.89 41.472 Z  M 41.67 52.092 L 41.67 52.092 L 41.67 52.092 Q 43.69 52.092 44.57 50.412 L 44.57 50.412 L 46.21 50.412 L 46.21 50.412 Q 45.69 51.772 44.56 52.612 L 44.56 52.612 L 44.56 52.612 Q 43.43 53.452 41.65 53.452 L 41.65 53.452 L 41.65 53.452 Q 39.39 53.452 37.97 51.952 L 37.97 51.952 L 37.97 51.952 Q 36.59 50.492 36.59 48.292 L 36.59 48.292 L 36.59 48.292 Q 36.59 46.072 37.91 44.632 L 37.91 44.632 L 37.91 44.632 Q 39.31 43.132 41.55 43.132 L 41.55 43.132 L 41.55 43.132 Q 43.79 43.132 45.19 44.632 L 45.19 44.632 L 45.19 44.632 Q 46.51 46.072 46.51 48.292 L 46.51 48.292 L 46.51 48.892 L 38.13 48.892 L 38.13 48.892 Q 38.29 50.272 39.23 51.172 L 39.23 51.172 L 39.23 51.172 Q 40.19 52.092 41.67 52.092 Z  M 41.55 44.492 L 41.55 44.492 L 41.55 44.492 Q 40.17 44.492 39.23 45.352 L 39.23 45.352 L 39.23 45.352 Q 38.35 46.172 38.15 47.492 L 38.15 47.492 L 44.95 47.492 L 44.95 47.492 Q 44.75 46.172 43.87 45.352 L 43.87 45.352 L 43.87 45.352 Q 42.93 44.492 41.55 44.492 Z  M 57.15 53.292 L 57.15 51.692 L 57.15 51.692 Q 55.95 53.452 53.57 53.452 L 53.57 53.452 L 53.57 53.452 Q 51.41 53.452 50.05 51.952 L 50.05 51.952 L 50.05 51.952 Q 48.73 50.472 48.73 48.292 L 48.73 48.292 L 48.73 48.292 Q 48.73 46.112 50.05 44.632 L 50.05 44.632 L 50.05 44.632 Q 51.41 43.132 53.67 43.132 L 53.67 43.132 L 53.67 43.132 Q 55.93 43.132 57.15 44.912 L 57.15 44.912 L 57.15 39.292 L 58.65 39.292 L 58.65 53.292 L 57.15 53.292 L 57.15 53.292 Z  M 53.77 52.092 L 53.77 52.092 L 53.77 52.092 Q 55.39 52.092 56.33 50.972 L 56.33 50.972 L 56.33 50.972 Q 57.23 49.912 57.23 48.292 L 57.23 48.292 L 57.23 48.292 Q 57.23 46.672 56.33 45.612 L 56.33 45.612 L 56.33 45.612 Q 55.39 44.492 53.77 44.492 L 53.77 44.492 L 53.77 44.492 Q 52.17 44.492 51.17 45.612 L 51.17 45.612 L 51.17 45.612 Q 50.23 46.672 50.23 48.292 L 50.23 48.292 L 50.23 48.292 Q 50.23 49.912 51.17 50.972 L 51.17 50.972 L 51.17 50.972 Q 52.17 52.092 53.77 52.092 Z  M 62.25 53.292 L 62.25 43.292 L 63.75 43.292 L 63.75 53.292 L 62.25 53.292 L 62.25 53.292 Z  M 62.19 39.652 L 63.81 39.652 L 63.81 41.612 L 62.19 41.612 L 62.19 39.652 L 62.19 39.652 Z  M 72.53 43.132 L 72.63 43.132 L 72.63 44.632 L 72.45 44.632 L 72.45 44.632 Q 70.83 44.632 69.81 45.932 L 69.81 45.932 L 69.81 45.932 Q 68.85 47.172 68.85 48.892 L 68.85 48.892 L 68.85 53.292 L 67.35 53.292 L 67.35 43.292 L 68.85 43.292 L 68.85 45.752 L 68.85 45.752 Q 69.33 44.192 70.93 43.452 L 70.93 43.452 L 70.93 43.452 Q 71.59 43.132 72.53 43.132 L 72.53 43.132 L 72.53 43.132 Z  M 79.45 52.092 L 79.45 52.092 L 79.45 52.092 Q 81.47 52.092 82.35 50.412 L 82.35 50.412 L 83.99 50.412 L 83.99 50.412 Q 83.47 51.772 82.34 52.612 L 82.34 52.612 L 82.34 52.612 Q 81.21 53.452 79.43 53.452 L 79.43 53.452 L 79.43 53.452 Q 77.17 53.452 75.75 51.952 L 75.75 51.952 L 75.75 51.952 Q 74.37 50.492 74.37 48.292 L 74.37 48.292 L 74.37 48.292 Q 74.37 46.072 75.69 44.632 L 75.69 44.632 L 75.69 44.632 Q 77.09 43.132 79.33 43.132 L 79.33 43.132 L 79.33 43.132 Q 81.57 43.132 82.97 44.632 L 82.97 44.632 L 82.97 44.632 Q 84.29 46.072 84.29 48.292 L 84.29 48.292 L 84.29 48.892 L 75.91 48.892 L 75.91 48.892 Q 76.07 50.272 77.01 51.172 L 77.01 51.172 L 77.01 51.172 Q 77.97 52.092 79.45 52.092 Z  M 79.33 44.492 L 79.33 44.492 L 79.33 44.492 Q 77.95 44.492 77.01 45.352 L 77.01 45.352 L 77.01 45.352 Q 76.13 46.172 75.93 47.492 L 75.93 47.492 L 82.73 47.492 L 82.73 47.492 Q 82.53 46.172 81.65 45.352 L 81.65 45.352 L 81.65 45.352 Q 80.71 44.492 79.33 44.492 Z  M 91.75 52.092 L 91.75 52.092 L 91.75 52.092 Q 92.71 52.092 93.45 51.552 L 93.45 51.552 L 93.45 51.552 Q 94.19 51.012 94.53 50.152 L 94.53 50.152 L 96.15 50.152 L 96.15 50.152 Q 95.69 51.632 94.47 52.532 L 94.47 52.532 L 94.47 52.532 Q 93.19 53.452 91.43 53.452 L 91.43 53.452 L 91.43 53.452 Q 89.23 53.452 87.85 51.952 L 87.85 51.952 L 87.85 51.952 Q 86.51 50.492 86.51 48.292 L 86.51 48.292 L 86.51 48.292 Q 86.51 46.092 87.85 44.632 L 87.85 44.632 L 87.85 44.632 Q 89.23 43.132 91.43 43.132 L 91.43 43.132 L 91.43 43.132 Q 93.19 43.132 94.47 44.052 L 94.47 44.052 L 94.47 44.052 Q 95.69 44.952 96.15 46.432 L 96.15 46.432 L 94.53 46.432 L 94.53 46.432 Q 94.19 45.572 93.45 45.032 L 93.45 45.032 L 93.45 45.032 Q 92.71 44.492 91.75 44.492 L 91.75 44.492 L 91.75 44.492 Q 90.79 44.492 90.12 44.792 L 90.12 44.792 L 90.12 44.792 Q 89.45 45.092 88.99 45.612 L 88.99 45.612 L 88.99 45.612 Q 88.01 46.692 88.01 48.292 L 88.01 48.292 L 88.01 48.292 Q 88.01 49.892 88.99 50.972 L 88.99 50.972 L 88.99 50.972 Q 89.99 52.092 91.75 52.092 Z  M 101.59 53.292 L 100.09 53.292 L 100.09 44.612 L 98.05 44.612 L 98.05 43.292 L 100.09 43.292 L 100.09 39.712 L 101.59 39.712 L 101.59 43.292 L 103.89 43.292 L 103.89 44.612 L 101.59 44.612 L 101.59 53.292 L 101.59 53.292 Z  M 51.67 23.16 L 53.41 23.16 L 53.41 36.4 L 51.91 36.4 L 51.91 25.44 L 47.01 31.74 L 42.03 25.44 L 42.03 36.4 L 40.53 36.4 L 40.53 23.16 L 42.27 23.16 L 47.01 29.44 L 51.67 23.16 L 51.67 23.16 Z  M 61.61 35.2 L 61.61 35.2 L 61.61 35.2 Q 63.63 35.2 64.51 33.52 L 64.51 33.52 L 66.15 33.52 L 66.15 33.52 Q 65.63 34.88 64.5 35.72 L 64.5 35.72 L 64.5 35.72 Q 63.37 36.56 61.59 36.56 L 61.59 36.56 L 61.59 36.56 Q 59.33 36.56 57.91 35.06 L 57.91 35.06 L 57.91 35.06 Q 56.53 33.6 56.53 31.4 L 56.53 31.4 L 56.53 31.4 Q 56.53 29.18 57.85 27.74 L 57.85 27.74 L 57.85 27.74 Q 59.25 26.24 61.49 26.24 L 61.49 26.24 L 61.49 26.24 Q 63.73 26.24 65.13 27.74 L 65.13 27.74 L 65.13 27.74 Q 66.45 29.18 66.45 31.4 L 66.45 31.4 L 66.45 32 L 58.07 32 L 58.07 32 Q 58.23 33.38 59.17 34.28 L 59.17 34.28 L 59.17 34.28 Q 60.13 35.2 61.61 35.2 Z  M 61.49 27.6 L 61.49 27.6 L 61.49 27.6 Q 60.11 27.6 59.17 28.46 L 59.17 28.46 L 59.17 28.46 Q 58.29 29.28 58.09 30.6 L 58.09 30.6 L 64.89 30.6 L 64.89 30.6 Q 64.69 29.28 63.81 28.46 L 63.81 28.46 L 63.81 28.46 Q 62.87 27.6 61.49 27.6 Z  M 71.75 36.4 L 70.25 36.4 L 70.25 27.72 L 68.21 27.72 L 68.21 26.4 L 70.25 26.4 L 70.25 22.82 L 71.75 22.82 L 71.75 26.4 L 74.05 26.4 L 74.05 27.72 L 71.75 27.72 L 71.75 36.4 L 71.75 36.4 Z  M 84.29 36.4 L 84.29 34.8 L 84.29 34.8 Q 83.09 36.56 80.71 36.56 L 80.71 36.56 L 80.71 36.56 Q 78.55 36.56 77.19 35.06 L 77.19 35.06 L 77.19 35.06 Q 75.87 33.58 75.87 31.4 L 75.87 31.4 L 75.87 31.4 Q 75.87 29.22 77.19 27.74 L 77.19 27.74 L 77.19 27.74 Q 78.55 26.24 80.81 26.24 L 80.81 26.24 L 80.81 26.24 Q 83.07 26.24 84.29 28.02 L 84.29 28.02 L 84.29 26.4 L 85.79 26.4 L 85.79 36.4 L 84.29 36.4 L 84.29 36.4 Z  M 80.91 35.2 L 80.91 35.2 L 80.91 35.2 Q 82.53 35.2 83.47 34.08 L 83.47 34.08 L 83.47 34.08 Q 84.37 33.02 84.37 31.4 L 84.37 31.4 L 84.37 31.4 Q 84.37 29.78 83.47 28.72 L 83.47 28.72 L 83.47 28.72 Q 82.53 27.6 80.91 27.6 L 80.91 27.6 L 80.91 27.6 Q 79.31 27.6 78.31 28.72 L 78.31 28.72 L 78.31 28.72 Q 77.37 29.78 77.37 31.4 L 77.37 31.4 L 77.37 31.4 Q 77.37 33.02 78.31 34.08 L 78.31 34.08 L 78.31 34.08 Q 79.31 35.2 80.91 35.2 Z " fill="rgb(255,255,255)"/><path d=" M 85 68.988 L 75.917 68.988 L 75.917 64 L 61.795 64 L 61.795 68.988 L 52.45 68.988 L 43 78.227 L 52.45 87.415 L 61.795 87.415 L 61.795 116.5 L 75.917 116.5 L 75.917 87.415 L 85 87.415 L 85 68.988 Z  M 63.895 66.048 L 73.818 66.048 L 73.818 68.988 L 63.895 68.988 L 63.895 66.048 Z  M 73.818 114.4 L 63.895 114.4 L 63.895 87.415 L 73.818 87.415 L 73.818 114.4 Z  M 82.9 85.368 L 75.917 85.368 L 61.795 85.368 L 53.29 85.368 L 45.993 78.227 L 53.29 71.088 L 61.795 71.088 L 75.917 71.088 L 82.9 71.088 L 82.9 85.368 Z " fill="rgb(255,153,0)"/></g></svg>